<svg xmlns="http://www.w3.org/2000/svg" fill="none" viewBox="0 0 452 324"><path fill="#E9D6B8" d="M220.212 87.146l4.914-59.83s16.458 42.007 10.989 60.389c-5.48 18.381-15.903-.56-15.903-.56z"/><path fill="#B0BFDE" d="M269.614 140.13l-27.402-36.316-1.7-12.128 3.023.373-3.219-11.84-23.227-.284-1.914 18.858 3.23.707.41 11.071 4.316 2.83 15.611 54.039 30.872-27.31z"/><path fill="#D1DBEA" d="M322.397 145.872l-58.821-12.784s-50.592 7.474-51.844 110.616c-.008.484 77.333 25.374 77.702 5.868.924-48.733 32.963-103.7 32.963-103.7z"/><path fill="#E9D6B8" d="M370.045 124.494l48.903-27.617s-26.866 37.755-38.927 44.159c-12.071 6.405-9.976-16.542-9.976-16.542z"/><path fill="#D1DBEA" d="M305.648 147.795l54.239-25.134-1.219-2.231 13.501-3.208 16.55 23.125-14.928 9.594-1.954-3.977-3.795-5.88 3.093 7.127-14.208 12.876-11.935 1.276-44.691 31.206 5.347-44.774z"/><path fill="#163F59" d="M289.84 248.418l49.732 270.196-19.104-.84-28.322-87.265-6.377-26.088-33.714-103.264-3.118-55.189 40.903 2.45z"/><path fill="#163F59" d="M230.89 518.488l5.436-108.954 9.67-49.21 12.518-67.614-4.123-46.505-41.983-2.827 1.116 77.804-5.103 69.926-1.153 26.422.905 104.598 22.717-3.64z"/><path fill="#E9D6B8" d="M409.515 103.041s-3.004-9.746-1.364-12.155c1.645-2.401 8.248-10.8 8.248-10.8l1.891-1.987s3.367.844-1.138 6.438c-4.504 5.598-.798 4.055-.798 4.055l6.023-3.537 7.734-3.76 3.211-2.105s1.733-1.328 2.416-1.29c1.977.095 1.172 1.55 1.172 1.55l-11.787 9.22 13.213-5.576s1.81-.433 2.365.363c.521.75-.011 1.02-.011 1.02l-13.447 9.787 7.143-2.116s1.781-.381 2.368.37c.636.821.836 1.025.836 1.025l-26.383 11.925-1.692-2.427z"/><path fill="#E9D6B8" d="M426.948 90.642l9.525-3.392s2.048-.992 3.285-.859c1.423.144 1.342 1.37 1.342 1.37l-13.86 6.504-.292-3.623zM226.981 40.14s8.358-5.827 8.543-8.735c.185-2.904.151-13.594.151-13.594l-.269-2.73s-3.171-1.414-3.063 5.775c.103 7.19-1.866 3.686-1.866 3.686l-2.568-6.498-3.78-7.733-1.235-3.637s-.546-2.109-1.108-2.505c-1.619-1.147-1.881.5-1.881.5l3.618 14.534-6.977-12.54s-1.16-1.461-2.091-1.173c-.872.27-.617.81-.617.81l4.582 16.003-4.327-6.072s-1.171-1.402-2.092-1.173c-1.005.256-1.289.3-1.289.3l13.453 25.66 2.816-.877z"/><path fill="#E9D6B8" d="M220.866 19.624l-5.421-8.547s-1.001-2.042-2.058-2.704c-1.208-.759-1.899.251-1.899.251l6.924 13.675 2.454-2.675zM281.937 119.295c-3.318 13.161-4.416 19.946-4.186 20.879 1.585 6.441 19.228 5.054 19.457 1.372.23-3.685 6.522-18.666 7.941-20.705 1.426-2.038-21.243-9.35-23.212-1.546z"/><path fill="#E2C59C" d="M293.262 116.113c4.371.843 8.458 2.179 10.524 3.289-2.125 3.689-4.309 7.297-5.975 9.579-4.645 6.364-11.669 6.579-16.328 7.212-1.006.137-2.166.044-3.381-.182.343-2.353 1.448-7.244 3.839-16.716.894-3.552 6.071-3.967 11.321-3.182z"/><path fill="#E9D6B8" d="M290.654 83.793l-18.309 31.584s-4.338 7.492-2.11 10.226c2.228 2.724 10.202 6.646 14.854 6.009 4.656-.632 11.687-.847 16.328-7.207 4.641-6.368 13.343-23.018 13.343-23.018s.783-6.697-11.056-9.287c-11.838-2.594-13.05-8.306-13.05-8.306z"/><path fill="#194866" d="M296.174 76.745c-1.596-.422-4.538-.688-6.455 1.347-1.977 2.105-1.826 7.019-.015 8.758 1.807 1.731 15.301 9.694 17.3 10.06 1.992.363 5.52 1.517 8.458-.222 1.906-1.132-1.123-7.715-4.671-8.584-9.023-2.209-8.676-9.801-14.617-11.359z"/><path fill="#194866" d="M311.896 94.827l-7.911 13.649-3.122 7.848 1.603.932 2.942 1.706s15.67-15.936 12.371-20.724c-3.311-4.777-4.996-4.329-5.883-3.411z"/><path fill="#E9D6B8" d="M301.864 118.699a2.473 2.473 0 00.902 3.382l1.245.725a2.477 2.477 0 003.385-.899l2.893-4.995a2.487 2.487 0 00-.898-3.389l-1.249-.721a2.476 2.476 0 00-3.381.895l-2.897 5.002z"/><path fill="#3BB6D5" d="M279.683 143.333s-35.029 36.079-44.507 85.556c-.746 3.899 2.155 7.81 2.155 7.81l6.924-3.666c-.004 0 17.075-53.924 35.428-89.7z"/><path fill="#B0BFDE" d="M280.148 143.079l-1.47 8.41 19.114-8.292-.454-2.279-17.19 2.161zM277.658 137.646l-5.461 8.51 7.815-3.278-2.354-5.232z"/><path fill="#AD5C49" d="M138.382 138.506c0 13.901-28.149 199.5-119.172 107.255-46.827-47.452 60.318-41.728 64.519-83.231 1.404-13.831 10.058-63.925 27.033-25.171 5.997 13.693 27.62-12.754 27.62 1.147z"/><path fill="#E9D6B8" d="M74.292 141.647s3.998-2.112-7.198-22.758C55.902 98.235 34.567 70.3 34.567 70.3l21.579 49.736s9.123 18.681 18.146 21.611z"/><path fill="#F0CA67" d="M94.478 167.726l-31.083-57.698-1.455-3.482-17.64 7.822s24.575 44.308 26.3 46.25c1.723 1.946 11.67 20.661 12.863 24.25 1.197 3.585 9.26 20.701 20.566 14.411 11.303-6.301-9.551-31.553-9.551-31.553z"/><path fill="#E9D6B8" d="M45.586 85.6c-5.491-9.739-3.163-16.262-3.888-20.854-.724-4.591-.687-9.579-.713-9.538-2.771 4.177-1.116 7.381-1.522 9.605-.407 2.224.015 1.484-2.188-1.858-1.256-1.894.13-7.04.566-10.46.377-2.963-.252-4.388-.252-4.388s-1.958 4.211-2.856 8.795c-1.082 5.524-1.127 11.7-.916 13.05.392 2.468 3.85 9.087 7.057 13.435 3.621 4.899 8.669 9.235 4.712 2.213zM161.646 138.832s-4.002-2.116 7.194-22.762c11.196-20.654 32.527-48.585 32.527-48.585l-21.579 49.735c.004.004-9.115 18.678-18.142 21.612z"/><path fill="#F0CA67" d="M141.46 164.906l31.086-57.695 1.452-3.485 17.64 7.822s-24.575 44.315-26.297 46.257c-1.722 1.943-10.882 20.987-12.863 24.239-6.54 10.745-6.54 16.735-8.021 15.322-9.26-8.814-2.997-32.46-2.997-32.46z"/><path fill="#E9D6B8" d="M190.352 82.788c5.491-9.738 3.163-16.265 3.891-20.853.724-4.596.687-9.58.713-9.539 2.772 4.174 1.116 7.378 1.523 9.602.41 2.227-.015 1.487 2.187-1.858 1.256-1.898-.129-7.037-.565-10.46-.377-2.963.255-4.384.255-4.384s1.954 4.21 2.852 8.791c1.083 5.528 1.131 11.703.913 13.05-.388 2.472-3.843 9.09-7.054 13.431-3.621 4.903-8.668 9.239-4.715 2.22z"/><path fill="#3BB6D5" d="M121.148 284.982l-7.386 111.648-9.685 107.818-16.513.322s1.87-109.069.784-118.4c-1.094-9.328-10.28-85.219.28-103.586 10.553-18.363 32.52 2.198 32.52 2.198z"/><path fill="#35A3BF" d="M114.438 305.558s-14.965-19.229-24.76-11.197c-.998 4.533-1.903 9.879-2.72 15.818 6.489 59.873 11.765 64.398 23.323 70.999l3.935-33.933.222-41.687z"/><path fill="#3BB6D5" d="M144.981 272.183s12.002 59.304 12.948 91.423c.946 32.128 7.094 125.934 7.094 125.934l.484 16.42-12.766-.059-23.426-119.473-22.281-109.864 37.947-4.381z"/><path fill="#AD5C49" d="M138.179 135.209c0 13.261-10.59 24.013-23.652 24.013-13.062 0-23.655-10.748-23.655-24.013 0-13.264 10.589-24.009 23.655-24.009 13.062-.004 23.652 10.745 23.652 24.009z"/><path fill="#E9D6B8" d="M110.396 142.262s2.254 12.854.373 16.42c-1.873 3.575-14.64 11.789-16.517 14.286-1.88 2.498 3.755 21.778 22.148 18.929 18.394-2.863 26.028-11.814 26.028-14.674 0-2.856 8.51-7.825 2.505-9.968-6.001-2.146-15.766-3.574-18.394-6.43-2.63-2.857-6.004-9.994-4.127-17.494 1.877-7.496-12.016-1.069-12.016-1.069z"/><path fill="#E9D6B8" d="M120.398 116.646a17.15 17.15 0 00-1.178-.255c-.813 4.418-4.505 9.639-10.221 13.742a35.056 35.056 0 01-4.234 2.594v4.144c0 6.134 5.461 11.1 12.201 11.1 6.739 0 12.201-4.969 12.201-11.1v-9.339c-3.352-2.12-6.559-5.972-8.769-10.886z"/><path fill="#194866" d="M141.124 274.178l-55.88 15.458 8.742-48.803-1.984-57.246s11.259 4.122 21.117 4.717c6.466.385 20.271-4.717 20.271-4.717l7.734 90.591z"/><path fill="#F0CA67" d="M84.28 180.234s4.56 31.98 5.28 44.867c1.297 23.221-20.238 46.468-21.365 53.968-1.123 7.504 6.729 14.585 6.729 14.585s4.885 2.853 7.504 3.212c2.628.355 7.642-2.05 9.39-10.712 2.157-10.711 8.812-47.6 10.135-54.275 1.877-9.457.377-37.129 1.877-40.704 1.5-3.57 6.943-15.173 6.193-18.03-.75-2.856-6.193-8.036-6.193-8.036s-16.546 8.34-19.55 15.125zM136.206 164.044s-7.32 2.946-9.57 4.015c-2.254 1.073-1.127 12.857 0 14.463 1.127 1.606 3.096 37.759 3.377 46.328.281 8.573 1.408 42.309 2.812 48.47 1.411 6.157.565 13.383 7.323 15.795 6.758 2.413 19.436-8.917 19.436-8.917s-9.278-18.026-10.967-25.26c-1.688-7.226-5.372-16.435-5.934-27.409-.565-10.982 1.859-27.784 3.913-36.423 2.306-9.72 3.403-23.033 3.972-24.642.562-1.602-12.112-5.62-14.362-6.42z"/></svg>